HIERARCHY
ROOT Joint1
{
	OFFSET 0.000000 0.000000 0.000000
	CHANNELS 6 Xposition Yposition Zposition Xrotation Yrotation Zrotation
	JOINT Joint2
	{
		OFFSET -0.000000 0.000000 1.456275
		CHANNELS 6 Xposition Yposition Zposition Xrotation Yrotation Zrotation
		JOINT Joint3
		{
			OFFSET -0.000000 0.000002 1.471446
			CHANNELS 6 Xposition Yposition Zposition Xrotation Yrotation Zrotation
			JOINT Joint4
			{
				OFFSET 0.625745 0.000000 0.917755
				CHANNELS 6 Xposition Yposition Zposition Xrotation Yrotation Zrotation
				JOINT Joint5
				{
					OFFSET -0.629534 0.000001 0.940221
					CHANNELS 6 Xposition Yposition Zposition Xrotation Yrotation Zrotation
					JOINT Joint6
					{
						OFFSET -0.000001 0.113772 1.960660
						CHANNELS 6 Xposition Yposition Zposition Xrotation Yrotation Zrotation
						JOINT Joint7
						{
							OFFSET -0.669733 -0.113771 0.388340
							CHANNELS 6 Xposition Yposition Zposition Xrotation Yrotation Zrotation
							End Site
							{
								OFFSET 0.005509 0.005509 0.438980
							}
						}
					}
				}
			}
		}
	}
}
MOTION
Frames: 22
Frame Time: 0.041667
0.000000 0.000000 0.000000 -0.000000 1.019410 0.071440 -0.000000 0.000000 1.456275 -0.000000 -34.235244 0.000000 -0.000000 0.000002 1.471445 -0.000002 -1.133463 -55.218063 0.625745 0.000000 0.917755 0.000007 112.606522 0.000002 -0.629534 0.000001 0.940221 -0.000003 1.709737 -14.441588 -0.000000 0.113772 1.960660 -88.303862 95.901088 0.000021 -0.669733 -0.113771 0.388340 0.291964 2.750337 56.371785 
0.000000 0.000000 0.000000 -0.000000 1.019410 0.069237 -0.000000 0.000000 1.456275 -0.000000 -34.524663 -0.000000 -0.000000 0.000002 1.471446 -0.000002 -1.133465 -53.731264 0.625745 0.000000 0.917755 0.000001 113.210379 -0.000000 -0.629533 0.000001 0.940221 -0.000001 1.709736 -14.052895 -0.000001 0.113772 1.960661 -88.303855 95.741569 0.000019 -0.669733 -0.113771 0.388340 0.283871 2.787010 58.488324 
0.000000 0.000000 0.000000 -0.000000 1.019410 0.067325 -0.000000 -0.000000 1.456275 -0.000000 -34.775847 -0.000000 -0.000001 0.000002 1.471446 -0.000002 -1.133467 -52.440905 0.625745 0.000000 0.917755 -0.000001 113.734473 -0.000000 -0.629534 0.000001 0.940221 -0.000001 1.709736 -13.715559 -0.000001 0.113772 1.960661 -88.303848 95.603121 0.000027 -0.669733 -0.113771 0.388340 0.275752 2.818579 60.325289 
0.000000 0.000000 0.000000 -0.000000 1.019410 0.065426 -0.000000 -0.000000 1.456275 -0.000000 -35.025272 -0.000000 -0.000000 0.000002 1.471446 -0.000002 -1.133465 -51.159582 0.625745 0.000001 0.917755 -0.000003 114.254865 -0.000000 -0.629534 0.000001 0.940221 -0.000001 1.709738 -13.380579 -0.000001 0.113772 1.960661 -88.303841 95.465656 0.000034 -0.669733 -0.113771 0.388341 0.266692 2.849653 62.149442 
0.000000 0.000000 0.000000 -0.000000 1.019410 0.063263 -0.000000 0.000000 1.456275 -0.000000 -35.309407 0.000000 -0.000000 0.000002 1.471446 -0.000002 -1.133464 -49.699882 0.625745 0.000001 0.917755 0.000001 114.847718 0.000002 -0.629534 0.000001 0.940221 -0.000001 1.709735 -12.998972 -0.000001 0.113772 1.960660 -88.303855 95.309040 0.000019 -0.669733 -0.113771 0.388339 0.255168 2.884680 64.227602 
0.000000 0.000000 0.000000 -0.000000 1.019410 0.060657 -0.000000 0.000000 1.456275 -0.000000 -35.651736 0.000000 -0.000000 0.000002 1.471446 -0.000002 -1.133461 -47.941269 0.625745 0.000000 0.917755 0.000003 115.561992 0.000002 -0.629533 0.000001 0.940221 -0.000002 1.709738 -12.539218 -0.000001 0.113772 1.960660 -88.303848 95.120356 0.000031 -0.669733 -0.113771 0.388340 0.239607 2.926291 66.731413 
0.000000 0.000000 0.000000 -0.000000 1.019410 0.057825 -0.000000 0.000000 1.456275 -0.000000 -36.023661 0.000000 -0.000000 0.000002 1.471446 -0.000002 -1.133463 -46.030626 0.625745 0.000000 0.917755 0.000005 116.337997 -0.000002 -0.629534 0.000001 0.940221 -0.000001 1.709737 -12.039718 -0.000001 0.113772 1.960660 -88.303841 94.915369 0.000015 -0.669733 -0.113771 0.388340 0.220655 2.970682 69.451809 
0.000000 0.000000 0.000000 -0.000000 1.019410 0.055085 -0.000000 0.000000 1.456275 0.000000 -36.383567 0.000000 -0.000000 0.000002 1.471446 -0.000002 -1.133466 -44.181697 0.625745 0.000001 0.917755 0.000007 117.088922 -0.000000 -0.629534 0.000001 0.940221 -0.000004 1.709738 -11.556352 -0.000001 0.113772 1.960660 -88.303848 94.716993 0.000025 -0.669733 -0.113771 0.388340 0.200326 3.012737 72.084437 
0.000000 0.000000 0.000000 -0.000000 1.019410 0.052684 -0.000000 0.000000 1.456275 -0.000000 -36.699030 0.000000 -0.000000 0.000002 1.471446 -0.000001 -1.133462 -42.561122 0.625745 0.000001 0.917755 0.000007 117.747106 -0.000002 -0.629534 0.000001 0.940221 -0.000001 1.709736 -11.132685 -0.000000 0.113772 1.960661 -88.303841 94.543116 0.000025 -0.669733 -0.113771 0.388341 0.180931 3.048799 74.392037 
0.000000 0.000000 0.000000 -0.000000 1.019410 0.050588 -0.000000 0.000000 1.456275 -0.000000 -36.974273 0.000000 -0.000000 0.000002 1.471445 -0.000001 -1.133460 -41.147139 0.625745 0.000001 0.917755 0.000007 118.321416 0.000007 -0.629534 0.000001 0.940221 0.000000 1.709738 -10.763027 -0.000002 0.113772 1.960661 -88.303841 94.391411 0.000022 -0.669733 -0.113771 0.388340 0.162834 3.079604 76.405515 
0.000000 0.000000 0.000000 -0.000000 1.019410 0.048697 -0.000000 -0.000000 1.456275 -0.000000 -37.222704 -0.000000 -0.000001 0.000002 1.471445 -0.000001 -1.133465 -39.870891 0.625745 0.000001 0.917755 0.000008 118.839745 -0.000002 -0.629534 0.000001 0.940221 -0.000001 1.709737 -10.429380 -0.000001 0.113772 1.960660 -88.303834 94.254486 0.000031 -0.669733 -0.113771 0.388340 0.145576 3.106848 78.222919 
0.000000 0.000000 0.000000 -0.000000 1.019410 0.046908 -0.000000 0.000000 1.456275 -0.000000 -37.457738 -0.000000 -0.000000 0.000002 1.471446 -0.000001 -1.133464 -38.663515 0.625745 0.000000 0.917755 0.000007 119.330126 0.000002 -0.629534 0.000001 0.940221 -0.000003 1.709736 -10.113735 -0.000001 0.113772 1.960660 -88.303841 94.124945 0.000026 -0.669733 -0.113771 0.388341 0.128460 3.132106 79.942296 
0.000000 0.000000 0.000000 -0.000000 1.019410 0.045118 -0.000000 0.000000 1.456275 -0.000000 -37.692754 0.000000 -0.000000 0.000002 1.471446 -0.000001 -1.133462 -37.456156 0.625745 0.000000 0.917755 -0.000000 119.820492 -0.000003 -0.629534 0.000001 0.940221 0.000002 1.709736 -9.798093 -0.000001 0.113772 1.960660 -88.303841 93.995410 0.000025 -0.669733 -0.113771 0.388340 0.110593 3.156841 81.661708 
0.000000 0.000000 0.000000 -0.000000 1.019410 0.043227 -0.000000 0.000000 1.456275 -0.000000 -37.941189 -0.000000 -0.000000 0.000002 1.471446 -0.000001 -1.133466 -36.179929 0.625744 0.000000 0.917755 0.000004 120.338835 0.000002 -0.629533 0.000001 0.940221 0.000003 1.709736 -9.464452 -0.000001 0.113772 1.960661 -88.303834 93.858472 0.000025 -0.669733 -0.113771 0.388340 0.090908 3.182390 83.479248 
0.000000 0.000000 0.000000 -0.000000 1.019410 0.041132 -0.000000 0.000000 1.456275 0.000000 -38.216428 -0.000000 -0.000000 0.000002 1.471446 -0.000001 -1.133463 -34.765953 0.625745 0.000000 0.917755 0.000005 120.913118 -0.000002 -0.629534 0.000001 0.940221 0.000001 1.709737 -9.094794 -0.000001 0.113772 1.960660 -88.303834 93.706767 0.000024 -0.669733 -0.113771 0.388339 0.068161 3.209956 85.493034 
0.000000 0.000000 0.000000 -0.000000 1.019410 0.038730 -0.000000 0.000000 1.456275 -0.000000 -38.531901 -0.000000 -0.000000 0.000002 1.471446 -0.000001 -1.133457 -33.145337 0.625745 0.000000 0.917755 0.000006 121.571329 -0.000002 -0.629535 0.000001 0.940221 0.000001 1.709735 -8.671120 -0.000000 0.113772 1.960661 -88.303841 93.532891 0.000032 -0.669733 -0.113771 0.388340 0.040916 3.240543 87.801180 
0.000000 0.000000 0.000000 -0.000000 1.019410 0.035990 -0.000000 0.000000 1.456275 -0.000000 -38.891825 -0.000000 -0.000000 0.000002 1.471446 -0.000001 -1.133467 -31.296330 0.625745 0.000000 0.917755 0.000007 122.322295 -0.000005 -0.629533 0.000001 0.940221 -0.000001 1.709737 -8.187730 -0.000001 0.113772 1.960661 -88.303827 93.334508 0.000023 -0.669733 -0.113771 0.388340 0.008353 3.274071 90.434724 
0.000000 0.000000 0.000000 -0.000000 1.019410 0.033158 -0.000000 0.000000 1.456275 -0.000000 -39.263752 -0.000000 -0.000000 0.000002 1.471446 -0.000001 -1.133462 -29.385646 0.625744 0.000000 0.917755 0.000005 123.098314 -0.000001 -0.629533 0.000001 0.940221 0.000003 1.709736 -7.688223 -0.000001 0.113772 1.960661 -88.303821 93.129513 0.000029 -0.669733 -0.113771 0.388341 -0.026882 3.307108 93.156199 
0.000000 0.000000 0.000000 -0.000000 1.019410 0.030552 -0.000000 0.000000 1.456275 -0.000000 -39.606061 -0.000000 -0.000000 0.000002 1.471445 -0.000001 -1.133461 -27.627154 0.625745 0.000000 0.917755 0.000004 123.812519 -0.000001 -0.629534 0.000001 0.940221 0.000003 1.709735 -7.228503 -0.000001 0.113772 1.960661 -88.303827 92.940843 0.000035 -0.669733 -0.113771 0.388340 -0.060667 3.336009 95.661014 
0.000000 0.000000 0.000000 -0.000000 1.019410 0.028390 -0.000000 0.000000 1.456275 0.000000 -39.890139 0.000000 -0.000000 0.000002 1.471446 -0.000001 -1.133461 -26.167785 0.625745 0.000000 0.917754 0.000002 124.405243 0.000000 -0.629534 0.000001 0.940221 -0.000001 1.709736 -6.846975 -0.000002 0.113772 1.960661 -88.303814 92.784268 0.000037 -0.669733 -0.113771 0.388340 -0.089644 3.358855 97.739829 
0.000000 0.000000 0.000000 -0.000000 1.019410 0.026491 -0.000000 0.000000 1.456275 0.000000 -40.139502 0.000000 -0.000000 0.000002 1.471446 -0.000000 -1.133462 -24.886756 0.625745 0.000000 0.917755 0.000008 124.925526 -0.000003 -0.629533 0.000001 0.940221 -0.000001 1.709736 -6.512079 0.000000 0.113772 1.960660 -88.303814 92.646824 0.000038 -0.669733 -0.113771 0.388340 -0.115751 3.378031 99.564631 
0.000000 0.000000 0.000000 -0.000000 1.019410 0.024579 -0.000000 0.000000 1.456275 -0.000000 -40.390682 0.000000 -0.000000 0.000002 1.471445 -0.000000 -1.133461 -23.596384 0.625744 0.000000 0.917755 0.000005 125.449620 -0.000001 -0.629534 0.000001 0.940221 -0.000001 1.709736 -6.174735 -0.000000 0.113772 1.960660 -88.303814 92.508383 0.000036 -0.669733 -0.113771 0.388339 -0.142654 3.396500 101.402805 
